<svg xmlns="http://www.w3.org/2000/svg" viewBox="0 0 400 400">
  <g transform="translate(200 200) scale(1.6333938294010888) translate(-184.4 -199.8)">
    <path fill="#ffffff" d="M260,162c-1.6,0-3.2,0-4.8,0l-45.7-0.1c-0.7,0-1.9-0.1-3.2-0.1c-10.8-0.1-19.4-0.3-23.5,4.5
	c-3.6,4.1-3.6,11.7,0,16.2c5,6.4,16.5,5.7,22.8,5.3c0,0,8.3,0,25-0.1c0.1,0,0.3,0,0.4,0.1c0.1,0.1,0.2,0.2,0.3,0.3s0.1,0.3,0.1,0.4
	c0,0.1,0,0.3-0.1,0.4c-3.8,8.4-9.3,17.5-16.3,23.8c-14.8,13.3-39.2,13.9-56.3,3.2c-14.1-8.9-23.6-23.2-24.5-39.5
	c-0.6-12.7,2.2-26.4,10.4-36.7c5-6.4,11.5-11.5,19.3-15.3c14.1-6.8,28.9-7.3,44.2-1.6c4.5,1.7,9.4,4.3,14.5,7.8
	c4.2,2.8,8.8,4.9,13.8,3.8c4.4-0.9,7.5-3.4,9.3-7.5c0.9-2.1,1.2-4,1.1-5.8c-0.4-6-6.6-10.8-8.5-12.3c-30.7-23.3-63-18.5-63-18.5
	c-25.2,3.7-41,18.6-45.7,23.3c0,0-19.1,19.4-22.8,46.6c-1.4,10.3-0.3,20.6-0.3,20.6c0.3,2.4,0.6,4.8,1.1,7.1
	c3.8,18.7,16,35.5,32.1,47.1c5.9,4.2,12.1,7.5,18.6,9.9s18.8,6,34.2,4.6c20-1.8,34.1-10.9,40.1-15.4c0.5,13.9-8.7,28.2-18.9,38.2
	c-7.1,6.9-15.2,9.6-24.6,12.4c-7.9,2.4-13.9,9.4-9.7,17.6c3.1,6,8.4,8.6,15.8,7.7c17.4-2.1,34.1-12.9,44.2-26.1
	c2.2-2.9,4.4-6.1,6.4-9.7c2.8-4.8,4.6-8.2,5.5-10.2c4.9-11,6.5-23.5,6.8-26.4c3-29.7,4.8-66.7,5-72.3C263.1,162,261.1,162.1,260,162
	z"/>
  </g>
</svg>
